<?xml version="1.0" standalone="no"?>
<!DOCTYPE svg PUBLIC "-//W3C//DTD SVG 20010904//EN"
 "http://www.w3.org/TR/2001/REC-SVG-20010904/DTD/svg10.dtd">
<svg version="1.0" xmlns="http://www.w3.org/2000/svg"
 width="1024.000000pt" height="1024.000000pt" viewBox="0 0 1024.000000 1024.000000"
 preserveAspectRatio="xMidYMid meet">

<g transform="translate(0.000000,1024.000000) scale(0.100000,-0.100000)"
fill="#000000" stroke="none">
<path d="M0 5120 l0 -5120 5120 0 5120 0 0 5120 0 5120 -5120 0 -5120 0 0
-5120z m3806 3585 c20 -8 35 -18 32 -20 -3 -3 -35 -1 -73 4 -85 12 -209 -1
-272 -29 -26 -11 -88 -54 -139 -95 -50 -41 -94 -75 -98 -75 -22 0 3 46 53 102
81 88 158 129 260 137 90 7 185 -2 237 -24z m-1241 -41 c20 -36 47 -67 78 -90
68 -49 62 -70 -20 -66 l-62 4 -6 -34 c-4 -19 -5 -50 -3 -69 l4 -34 21 46 c12
25 28 49 37 52 9 4 16 4 16 1 0 -8 -76 -108 -94 -123 -30 -25 -48 7 -54 94
l-5 76 -41 -6 c-22 -3 -53 -8 -68 -11 -41 -8 -37 26 6 64 19 17 51 52 71 79
39 52 62 73 80 73 6 0 24 -25 40 -56z m1185 -80 c84 -19 149 -61 190 -122 71
-107 78 -240 21 -356 -37 -75 -72 -108 -161 -150 -162 -77 -354 -5 -440 165
-55 106 -28 269 58 361 51 55 80 73 162 99 69 22 85 23 170 3z m495 -169 c55
-13 138 -31 185 -40 125 -25 516 -110 660 -144 69 -16 148 -32 175 -36 82 -10
84 -15 37 -87 -58 -90 -90 -157 -103 -219 -14 -67 -6 -191 20 -280 l19 -66
-42 12 c-23 7 -84 31 -136 53 -52 22 -106 43 -120 47 -14 3 -59 19 -100 35
-200 76 -250 93 -430 145 -107 31 -243 72 -302 91 l-108 36 30 36 c52 65 73
128 78 227 3 72 -1 102 -17 149 -12 33 -21 63 -21 68 0 10 36 5 175 -27z
m3205 21 c0 -20 -39 -46 -67 -46 -27 0 -30 16 -6 42 20 22 73 25 73 4z m810
-12 c0 -13 -121 -59 -200 -76 -158 -34 -251 -49 -273 -46 -50 8 126 70 235 83
32 3 81 15 110 25 50 18 128 27 128 14z m-2650 -25 c21 0 18 -4 -19 -20 -25
-11 -70 -35 -100 -53 l-56 -34 -90 8 c-49 5 -102 9 -117 9 -104 3 90 75 252
95 19 2 51 2 70 0 19 -2 46 -4 60 -5z m-2395 -111 c-12 -65 -12 -83 0 -137 8
-34 22 -76 31 -94 18 -35 91 -127 111 -140 7 -4 13 -12 13 -16 0 -10 -198
-123 -285 -162 -77 -34 -385 -205 -453 -250 -23 -16 -45 -29 -47 -29 -2 0 -22
37 -44 83 -45 93 -106 160 -189 205 l-54 29 33 12 c18 6 78 41 133 78 56 37
249 165 430 286 180 120 330 216 332 214 2 -2 -3 -37 -11 -79z m3925 58 l24
-14 -38 -16 c-43 -18 -66 -20 -66 -7 0 5 -10 12 -22 15 -23 6 -23 7 -4 21 24
19 73 19 106 1z m-1074 -17 c105 -32 182 -77 254 -149 115 -115 160 -238 160
-434 -1 -169 -42 -269 -159 -384 -110 -107 -225 -160 -370 -169 -167 -11 -317
49 -441 176 -120 122 -170 237 -170 391 0 118 13 181 57 270 43 88 157 209
240 253 123 66 302 85 429 46z m1623 -86 c7 -14 8 -30 4 -34 -4 -4 -72 -26
-151 -49 -137 -39 -419 -137 -461 -159 -17 -9 -23 -6 -41 19 -12 16 -18 34
-15 40 11 17 95 56 197 89 76 25 423 118 449 121 3 0 11 -12 18 -27z m-754
-13 c3 -5 -1 -10 -10 -10 -9 0 -13 5 -10 10 3 6 8 10 10 10 2 0 7 -4 10 -10z
m-358 -31 c126 -47 199 -177 239 -424 8 -56 13 -120 9 -145 -10 -72 -53 -194
-87 -245 -52 -79 -94 -102 -315 -170 -24 -8 -13 3 34 34 25 17 57 31 70 31 32
0 89 30 139 73 58 51 100 136 119 242 8 48 15 89 15 91 0 1 -32 6 -71 10 -79
8 -89 18 -89 93 0 88 -64 253 -132 342 -20 25 -44 59 -54 74 l-18 28 42 -6
c23 -4 68 -17 99 -28z m1533 -21 c0 -7 -12 -25 -27 -40 -19 -20 -37 -28 -62
-28 -20 0 -67 -12 -106 -25 -38 -14 -77 -25 -85 -25 -19 1 171 98 225 116 51
16 55 16 55 2z m-1150 -274 c33 -104 35 -128 18 -206 l-11 -53 -37 151 c-21
83 -47 175 -58 205 -35 94 -35 95 12 46 37 -40 51 -65 76 -143z m1453 169 c4
-3 -45 -22 -110 -40 -64 -19 -182 -63 -262 -97 -133 -57 -234 -93 -316 -112
-16 -4 -91 -29 -165 -57 -74 -27 -173 -60 -220 -74 -47 -13 -93 -27 -103 -30
-15 -5 -17 -1 -12 20 4 15 0 37 -9 55 -22 43 -20 79 5 92 50 27 89 -14 75 -80
-7 -37 -1 -37 47 0 60 45 250 120 347 137 134 23 222 44 256 59 16 8 46 12 65
10 32 -4 37 -1 59 35 27 43 35 46 61 23 16 -14 21 -14 63 11 25 15 79 33 119
40 89 16 92 17 100 8z m-678 -54 c-51 -26 -208 -79 -235 -79 -74 0 54 53 184
77 16 2 38 8 50 13 40 16 41 9 1 -11z m-499 -75 c-3 -9 -6 -20 -6 -25 0 -5 -7
-9 -15 -9 -9 0 -33 -9 -55 -20 -53 -27 -60 -25 -60 13 0 41 23 55 94 56 40 1
47 -2 42 -15z m-3115 -98 c90 -30 216 -69 279 -86 141 -39 327 -105 565 -200
99 -40 209 -81 245 -90 35 -10 66 -22 68 -29 4 -13 3 -13 -73 -1 -34 5 -121
33 -195 61 -357 136 -327 125 -670 234 -186 59 -342 116 -387 140 -81 43 -13
31 168 -29z m-631 -21 c0 -12 -90 -58 -270 -140 -107 -48 -285 -132 -396 -186
-110 -55 -206 -99 -212 -99 -29 0 -5 19 91 72 305 169 787 384 787 353z m390
-30 c0 -11 -138 -45 -185 -45 -51 0 -113 15 -103 25 13 13 288 32 288 20z
m4293 -35 c-4 -4 -44 -19 -88 -35 -44 -15 -89 -33 -101 -40 -11 -7 -56 -24
-100 -38 -44 -14 -119 -41 -166 -61 -244 -101 -609 -209 -631 -186 -12 10 10
49 42 77 17 15 45 25 83 29 32 4 63 13 69 21 10 11 14 11 20 1 7 -10 9 -8 9 5
0 10 4 16 9 13 5 -3 36 8 69 24 64 31 159 60 200 60 14 0 41 4 61 9 20 6 70
17 111 26 87 18 130 29 220 56 128 38 212 55 193 39z m377 -40 c0 -5 -19 -14
-42 -20 -72 -19 -341 -111 -379 -131 -20 -10 -78 -30 -129 -44 -51 -14 -106
-33 -122 -41 -16 -8 -70 -30 -121 -48 -51 -19 -155 -57 -232 -86 -77 -28 -151
-55 -165 -59 -14 -5 -72 -27 -130 -49 -58 -22 -119 -43 -136 -46 -30 -7 -30
-6 -26 23 6 40 26 51 172 95 199 60 400 127 458 152 29 13 88 30 130 39 42 9
95 24 117 34 66 30 185 62 155 41 -8 -5 -10 -10 -5 -10 6 0 18 9 28 20 10 12
22 18 27 15 6 -3 10 -2 10 3 0 5 15 13 33 17 42 10 42 10 111 34 33 12 70 21
83 21 12 0 23 4 23 10 0 10 65 25 92 21 9 -1 19 3 23 9 8 13 25 13 25 0z
m-6266 -54 c67 -20 114 -61 142 -120 71 -152 -31 -330 -208 -362 -63 -11 -171
28 -223 81 -48 48 -65 92 -65 173 0 94 72 196 161 228 47 17 136 17 193 0z
m-391 -32 c3 -3 -8 -27 -24 -52 -16 -25 -29 -53 -29 -63 0 -9 -7 -33 -15 -52
-8 -20 -15 -59 -15 -86 0 -27 -4 -52 -8 -55 -5 -3 -60 4 -123 15 -78 14 -126
28 -151 45 -21 13 -40 24 -43 24 -3 0 -5 -16 -5 -35 0 -51 -21 -94 -73 -153
-25 -28 -84 -102 -130 -165 -79 -105 -163 -194 -173 -184 -5 4 54 172 104 297
32 80 144 293 169 322 16 18 210 86 353 124 84 22 151 30 163 18z m2878 -161
c16 -10 29 -20 29 -24 0 -4 -19 -35 -42 -68 -155 -223 -190 -271 -195 -271
-10 0 -103 53 -103 59 0 26 251 321 272 321 5 0 23 -8 39 -17z m-811 -93 c-8
-5 -23 -10 -33 -10 -10 0 -53 -16 -95 -35 -59 -28 -92 -52 -144 -105 -49 -51
-74 -70 -93 -70 l-26 0 17 32 c22 43 121 146 159 166 17 9 66 19 110 22 129
11 122 11 105 0z m186 -119 c105 -50 154 -134 154 -265 -1 -107 -32 -163 -135
-238 -60 -44 -101 -58 -173 -58 -110 0 -194 55 -249 163 -21 42 -26 65 -26
123 1 101 25 167 82 224 58 58 112 78 211 79 63 1 85 -4 136 -28z m1095 19
c28 -16 23 -43 -17 -92 -45 -52 -132 -170 -162 -218 -12 -19 -33 -48 -46 -64
l-24 -28 -31 18 c-52 31 -49 38 119 255 112 143 120 150 161 129z m-2251 -20
c5 0 34 -33 65 -74 62 -83 64 -106 9 -106 -47 0 -74 -29 -74 -79 0 -22 -5 -41
-12 -44 -17 -6 -58 32 -52 48 6 13 -59 75 -79 75 -7 0 -18 5 -25 12 -14 14 -5
31 52 107 40 53 69 74 94 65 8 -2 18 -4 22 -4z m4919 -29 c40 -37 39 -58 -3
-107 -38 -43 -52 -42 -89 8 -24 32 -17 69 18 104 31 31 36 30 74 -5z m-5529
-130 c0 -73 -109 -414 -143 -447 -20 -19 -184 -81 -306 -114 -170 -47 -361
-74 -361 -50 0 5 28 28 63 51 34 24 115 83 180 132 l119 89 48 -21 c60 -26 72
-26 94 -2 17 19 17 21 -3 48 l-21 28 20 130 c11 72 20 133 20 136 0 4 42 9 93
11 65 4 105 11 137 26 25 12 48 22 53 22 4 0 7 -18 7 -39z m2893 18 c34 -15
52 -51 39 -75 -20 -36 -130 -134 -153 -136 -22 -3 -24 1 -29 50 -5 48 -3 58
24 95 17 23 34 44 39 46 4 1 13 9 20 17 15 16 29 17 60 3z m2258 -13 c92 -63
76 -188 -28 -232 -40 -17 -79 -4 -136 46 -31 27 -37 39 -37 72 0 114 110 176
201 114z m-5785 -19 c29 -26 37 -42 41 -79 5 -42 3 -50 -25 -78 -37 -37 -76
-39 -123 -7 -49 33 -64 70 -50 118 24 80 96 102 157 46z m2693 -41 c21 -14
103 -57 182 -96 79 -40 223 -116 319 -170 255 -141 386 -211 465 -245 39 -17
70 -37 70 -45 0 -8 -25 -21 -65 -33 -77 -23 -127 -55 -210 -139 -74 -75 -124
-147 -141 -205 -14 -49 -19 -51 -45 -22 -58 65 -396 335 -563 450 -64 44 -136
94 -161 111 l-45 31 47 48 c26 27 60 72 75 101 25 47 28 64 28 146 0 50 1 92
3 92 1 0 20 -11 41 -24z m4388 -2 c-15 -8 -94 -42 -175 -76 -227 -93 -323
-134 -371 -158 -24 -12 -85 -37 -135 -55 -50 -18 -138 -53 -196 -78 -58 -25
-131 -53 -162 -62 -65 -18 -243 -90 -393 -157 -133 -59 -150 -65 -220 -81 -71
-15 -102 -12 -114 12 -16 30 14 53 124 94 39 14 120 45 180 68 61 23 139 50
175 60 36 10 85 30 110 43 25 13 75 33 113 45 37 11 76 25 88 31 11 6 165 62
342 125 177 62 358 127 402 145 86 34 182 58 230 59 l30 0 -28 -15z m-2947 -3
c0 -14 -300 -412 -315 -418 -8 -3 -34 4 -58 14 -23 11 -77 35 -120 54 -44 18
-90 44 -104 57 l-26 23 31 32 c16 18 51 64 76 104 26 40 50 74 55 77 5 3 40
-6 77 -21 53 -20 88 -26 149 -27 44 0 87 1 95 4 8 3 40 29 70 57 54 52 70 62
70 44z m-2275 -84 c0 -78 3 -89 42 -168 25 -51 54 -93 72 -107 17 -12 31 -27
31 -32 0 -13 -166 -122 -245 -162 -61 -31 -264 -155 -343 -210 -24 -17 -44
-29 -46 -27 -1 2 -11 22 -21 44 -28 57 -130 156 -197 190 l-57 30 38 20 c42
22 143 92 375 259 123 89 347 246 350 246 1 0 1 -37 1 -83z m2225 80 c0 -2
-17 -19 -37 -38 -25 -22 -29 -24 -14 -6 l24 27 -29 1 c-25 2 -23 3 11 9 22 4
41 8 43 9 1 0 2 0 2 -2z m-713 -183 c-3 -3 -12 -4 -19 -1 -8 3 -5 6 6 6 11 1
17 -2 13 -5z m1508 -4 c-12 -19 -82 -49 -242 -104 -87 -30 -202 -71 -256 -90
-54 -20 -109 -36 -124 -36 -24 0 -25 1 -11 22 13 20 137 67 353 135 28 9 95
31 150 49 105 34 140 41 130 24z m283 -71 l28 -30 -30 -33 c-39 -40 -60 -48
-90 -35 -50 23 -54 88 -7 114 40 22 67 18 99 -16z m1702 7 c0 -2 -35 -19 -77
-36 -43 -18 -109 -47 -148 -65 -38 -18 -110 -46 -160 -63 -49 -16 -128 -45
-175 -65 -47 -19 -131 -49 -186 -67 -56 -18 -114 -42 -129 -54 -28 -23 -28
-23 -11 -57 9 -19 20 -53 23 -75 l5 -41 -58 -21 c-33 -12 -97 -35 -143 -52
-149 -54 -641 -190 -690 -190 -14 0 -21 6 -21 20 0 11 4 20 10 20 5 0 16 15
23 33 17 40 29 49 92 72 28 10 85 36 128 57 43 22 129 59 190 84 129 52 189
82 200 101 16 27 127 72 407 166 179 60 585 201 635 220 38 15 85 22 85 13z
m267 -72 c3 -9 -19 -24 -123 -79 -73 -39 -132 -63 -374 -149 -181 -64 -230
-76 -230 -56 0 6 9 10 19 10 10 0 21 7 24 15 6 14 56 40 133 68 21 8 71 27
109 42 39 15 93 33 120 41 28 7 73 22 100 33 28 10 66 25 85 33 19 7 38 18 42
23 5 6 8 4 8 -4 0 -12 2 -12 13 1 25 32 67 45 74 22z m-4616 -131 c46 -31 104
-70 129 -87 286 -198 677 -546 612 -546 -4 0 -62 47 -127 105 -306 269 -328
287 -469 387 -181 129 -246 178 -246 188 0 18 15 11 101 -47z m2270 -22 c15
-16 32 -51 39 -79 10 -43 9 -56 -5 -85 -18 -38 -55 -63 -80 -53 -14 5 -11 11
17 40 18 19 38 40 43 48 14 18 17 66 5 73 -6 3 -10 -5 -10 -19 0 -14 -3 -25
-7 -24 -13 3 -74 -18 -123 -42 -8 -4 -25 -3 -38 1 -29 11 -30 57 -1 115 33 69
108 81 160 25z m-2651 25 c0 -8 -211 -126 -469 -262 -304 -160 -281 -149 -281
-135 0 24 243 163 538 310 163 81 212 101 212 87z m315 -112 l34 -26 -43 -52
c-92 -114 -143 -216 -184 -371 -31 -121 -36 -297 -9 -405 14 -58 14 -63 0 -45
-48 63 -83 190 -83 300 0 179 59 356 171 512 38 53 69 100 69 105 0 13 9 9 45
-18z m3819 -36 c19 -13 35 -31 36 -41 0 -21 -100 -73 -123 -64 -9 3 -18 25
-23 53 -6 39 -4 49 12 61 26 19 58 16 98 -9z m-2188 -49 c257 -78 403 -291
392 -568 -5 -118 -20 -169 -75 -264 -92 -156 -231 -246 -419 -272 -172 -23
-392 101 -501 283 -67 113 -78 151 -77 277 2 185 54 309 175 419 146 132 332
178 505 125z m-2950 -8 c144 -65 164 -278 35 -380 -78 -62 -146 -75 -234 -45
-58 20 -103 63 -133 129 -55 117 -10 234 111 291 63 30 161 32 221 5z m5771 3
c-3 -3 -12 -4 -19 -1 -8 3 -5 6 6 6 11 1 17 -2 13 -5z m-101 -50 c-6 -5 -47
-25 -91 -43 -44 -18 -84 -37 -90 -40 -5 -4 -26 -14 -45 -21 -19 -7 -111 -46
-205 -86 -93 -40 -237 -96 -320 -124 -82 -28 -167 -61 -188 -72 -60 -30 -122
-47 -232 -63 -115 -17 -341 -77 -532 -141 -103 -35 -140 -44 -168 -38 -25 4
-35 11 -35 25 0 11 -4 19 -10 19 -21 0 -8 26 23 47 45 30 296 109 392 123 110
17 159 30 310 85 72 26 204 71 295 102 91 30 201 70 245 88 143 59 356 125
414 129 32 2 78 13 103 23 26 12 57 18 76 15 22 -3 32 0 32 9 0 8 7 6 18 -7
13 -13 15 -22 8 -30z m474 41 c0 -6 -63 -33 -105 -46 -25 -8 -27 -7 -15 5 12
11 54 28 118 45 1 1 2 -1 2 -4z m-4675 -46 c4 -13 -4 -36 -24 -67 -46 -72
-107 -209 -126 -282 -21 -80 -16 -252 10 -350 25 -92 95 -226 149 -287 26 -28
85 -77 131 -109 47 -32 83 -59 81 -61 -8 -8 -128 39 -188 73 -84 49 -147 117
-196 211 -84 162 -108 318 -78 493 18 101 47 177 109 280 69 114 116 150 132
99z m-1890 -30 c-21 -40 -45 -151 -45 -211 l0 -48 -100 0 c-81 0 -109 4 -140
20 -49 25 -60 25 -60 0 0 -59 -126 -294 -257 -477 -54 -77 -64 -84 -57 -41 30
167 119 435 192 576 27 52 29 53 137 98 61 25 146 61 190 79 44 19 97 34 118
35 l38 0 -16 -31z m4465 11 c0 -5 9 -10 20 -10 16 0 20 -7 20 -34 0 -29 3 -33
20 -29 27 7 25 -11 -2 -24 -67 -32 -98 -43 -139 -48 -24 -4 -51 -9 -59 -12
-34 -13 -51 -13 -44 -1 6 10 5 10 -8 1 -8 -7 -18 -10 -21 -6 -9 9 12 33 29 33
11 0 13 7 8 26 -6 22 -1 32 26 55 35 31 46 36 34 18 -4 -7 0 -9 12 -6 11 4 31
9 46 12 15 4 29 13 32 21 6 16 26 19 26 4z m-225 -180 c-3 -5 -11 -10 -16 -10
-6 0 -7 5 -4 10 3 6 11 10 16 10 6 0 7 -4 4 -10z m1765 5 c0 -7 -51 -31 -80
-39 -14 -3 -2 5 25 18 57 28 55 27 55 21z m-3746 -77 c23 -31 23 -37 14 -93
-22 -135 10 -353 68 -456 17 -30 34 -67 38 -82 10 -42 101 -142 158 -175 68
-39 146 -70 195 -76 21 -3 70 -10 108 -16 39 -5 97 -10 130 -11 l60 -1 -45
-15 c-107 -35 -352 5 -495 80 -92 48 -234 195 -279 289 -43 89 -76 221 -76
303 0 103 55 285 86 285 7 0 24 -15 38 -32z m-1194 -48 l21 -30 -21 -30 c-12
-16 -24 -30 -27 -30 -14 0 -63 43 -63 56 0 25 31 64 50 64 10 0 28 -13 40 -30z
m4584 -46 c5 -13 2 -15 -14 -11 -11 3 -18 1 -15 -4 10 -16 -87 -51 -146 -52
-54 -2 -80 6 -67 19 3 3 41 18 85 34 90 33 148 38 157 14z m-5159 -150 c-8
-38 -34 -134 -57 -213 -37 -124 -47 -147 -73 -166 -47 -36 -278 -130 -413
-169 -128 -37 -152 -42 -152 -28 0 9 259 219 293 238 12 7 46 9 84 6 34 -2 63
-1 63 3 0 4 -9 22 -20 40 l-20 32 23 142 22 141 50 0 c39 0 70 9 130 38 93 46
95 44 70 -64z m1967 54 c60 -47 77 -79 111 -216 l32 -129 -35 9 c-19 6 -41 15
-48 20 -7 6 -27 18 -45 28 -21 11 -42 37 -62 75 -25 49 -29 68 -30 139 0 126
4 130 77 74z m-2531 -87 c23 -24 29 -38 29 -75 0 -38 -4 -48 -29 -65 -16 -12
-40 -21 -53 -21 -27 0 -63 32 -51 45 5 4 3 5 -4 1 -14 -8 -33 23 -33 56 0 13
9 38 20 56 27 44 78 45 121 3z m1088 -33 c11 -18 36 -49 55 -67 20 -19 36 -38
36 -42 0 -4 -15 -12 -32 -18 -22 -8 -41 -25 -57 -53 l-23 -41 -42 45 c-23 25
-52 48 -64 52 -23 8 -23 8 15 50 21 23 46 57 55 74 21 40 31 40 57 0z m3782 8
c5 3 9 1 9 -4 0 -10 -36 -28 -180 -89 -58 -25 -130 -56 -160 -70 -92 -42 -152
-64 -145 -53 3 5 0 10 -7 11 -10 0 -10 2 0 6 17 7 15 31 -4 51 -15 15 -11 18
57 40 41 12 90 25 109 27 19 2 96 24 170 48 74 25 137 41 138 36 2 -5 8 -7 13
-3z m1979 -10 c0 -3 -4 -8 -10 -11 -5 -3 -10 -1 -10 4 0 6 5 11 10 11 6 0 10
-2 10 -4z m-30 -15 c0 -13 -100 -54 -245 -101 -71 -24 -159 -55 -195 -70 -170
-72 -298 -124 -445 -181 -88 -34 -178 -70 -200 -82 -22 -11 -69 -30 -105 -42
-60 -21 -112 -41 -405 -157 -192 -75 -387 -138 -411 -132 -26 7 -31 26 -11 42
24 19 244 112 382 161 77 27 194 70 260 96 66 26 156 60 200 75 137 48 568
206 610 224 75 33 170 65 269 91 55 14 121 35 146 46 26 11 63 21 83 22 19 1
33 5 30 10 -2 4 5 7 16 7 12 0 21 -4 21 -9z m-799 -22 c13 -26 0 -63 -30 -78
-16 -9 -23 -6 -40 15 -26 33 -26 39 -1 64 26 26 56 25 71 -1z m-781 -38 c19
-5 53 -12 75 -16 38 -7 39 -8 15 -17 -14 -5 -116 -36 -226 -68 -111 -33 -251
-79 -310 -103 -60 -25 -192 -78 -294 -119 -102 -41 -199 -82 -217 -91 -41 -22
-43 -22 -43 8 0 20 -6 27 -30 32 -61 12 -41 24 230 133 80 32 163 66 185 75
22 10 67 28 100 40 33 12 105 40 160 61 174 66 277 85 355 65z m-900 -63 c-82
-34 -99 -40 -111 -36 -7 2 14 14 47 25 61 22 109 30 64 11z m-40 -107 c0 -5
-7 -12 -16 -15 -24 -9 -28 -7 -14 9 14 17 30 20 30 6z m1045 -10 c-6 -5 -48
-23 -95 -40 -47 -16 -140 -51 -208 -76 -68 -25 -128 -43 -133 -40 -15 10 -10
25 7 25 9 0 22 8 29 17 8 10 29 17 60 19 46 3 155 33 222 61 18 7 36 14 40 15
5 1 24 8 43 15 43 15 47 15 35 4z m-1125 -21 c0 -5 -5 -10 -11 -10 -5 0 -7 5
-4 10 3 6 8 10 11 10 2 0 4 -4 4 -10z m2090 -35 c0 -12 -188 -97 -444 -201
-87 -36 -183 -76 -213 -89 -29 -14 -56 -25 -59 -25 -6 0 -138 -58 -253 -112
-66 -31 -287 -104 -331 -110 -38 -5 -31 24 10 44 19 9 64 27 100 39 36 12 101
37 146 55 44 18 103 41 130 50 27 9 132 51 234 94 177 75 286 117 395 154 28
9 97 36 155 60 100 42 130 52 130 41z m154 -104 c-22 -20 -119 -65 -244 -112
-74 -28 -153 -62 -175 -75 -23 -13 -61 -30 -85 -39 -25 -9 -74 -29 -110 -45
-36 -16 -96 -41 -135 -56 -38 -15 -115 -49 -170 -76 -73 -37 -116 -52 -157
-56 -77 -7 -76 10 5 48 196 92 332 151 407 178 47 17 157 58 245 92 88 34 185
71 215 82 30 11 68 27 85 35 33 18 117 42 124 36 3 -2 0 -7 -5 -12z m-2676
-67 c48 -65 52 -97 22 -158 -44 -90 -263 -187 -544 -241 -227 -43 -674 -53
-916 -20 -336 47 -606 138 -694 236 -36 39 -38 44 -34 96 4 44 11 60 38 88 45
47 60 45 60 -5 0 -30 7 -47 25 -66 14 -14 30 -22 36 -19 5 4 15 2 22 -3 21
-18 254 -140 279 -146 12 -3 5 3 -17 14 -22 11 -31 18 -20 15 11 -2 54 -13 97
-24 165 -42 585 -66 848 -48 317 22 502 68 630 158 64 45 90 83 90 131 0 67
24 64 78 -8z m2688 -64 c-88 -43 -193 -91 -235 -106 -42 -15 -134 -53 -206
-84 -71 -32 -148 -63 -170 -69 -122 -33 -62 15 99 78 71 29 153 63 182 76 30
14 90 37 135 51 45 15 116 42 158 62 216 100 242 95 37 -8z m-5431 -29 c-11
-11 -134 -61 -148 -61 -9 0 -125 -53 -232 -106 -27 -14 -72 -31 -100 -38 -27
-8 -58 -17 -67 -21 -11 -4 -18 -3 -18 4 0 7 17 19 38 28 50 20 109 47 212 95
72 34 183 81 240 101 26 9 85 8 75 -2z m342 -57 c-4 -4 -64 -26 -135 -49 -331
-110 -608 -312 -699 -511 -48 -105 -34 -234 39 -341 68 -100 162 -171 353
-263 414 -200 1015 -310 1700 -312 689 -1 1238 88 1718 281 257 103 452 247
516 381 22 46 26 69 26 140 0 113 -28 174 -127 277 -122 126 -319 243 -561
333 -48 18 -86 34 -84 36 6 6 238 -56 346 -93 135 -45 243 -95 376 -174 142
-84 241 -188 322 -334 23 -43 27 -62 28 -135 0 -79 -2 -89 -34 -145 -62 -107
-183 -205 -393 -319 -96 -52 -154 -77 -335 -141 -245 -87 -695 -197 -958 -234
-445 -62 -744 -77 -1175 -62 -352 13 -449 21 -730 62 -288 42 -352 55 -545
109 -304 87 -456 152 -632 269 -249 167 -310 350 -193 580 71 140 271 313 479
416 189 93 518 204 700 234 2 1 1 -2 -2 -5z m5187 -72 c-16 -10 -47 -26 -69
-36 -22 -11 -85 -40 -140 -66 -55 -26 -111 -51 -124 -55 -33 -10 -19 9 18 25
17 7 29 17 28 24 -1 6 6 10 15 10 10 -1 16 2 13 6 -3 5 20 21 52 35 65 31 163
66 163 59 0 -3 7 -1 15 3 8 5 25 9 37 10 19 2 18 0 -8 -15z m-6247 -7 c47 -33
54 -139 12 -184 -33 -35 -93 -29 -135 13 -47 47 -43 108 8 164 25 26 82 30
115 7z m-757 -45 c30 -30 25 -57 -16 -78 -29 -15 -64 10 -64 47 0 51 43 68 80
31z m1964 -17 c-6 -10 -39 -32 -74 -49 -35 -18 -70 -40 -79 -50 -12 -13 -8
-12 14 3 37 25 82 48 113 57 20 7 22 4 22 -37 0 -24 7 -67 15 -95 14 -46 23
-57 76 -92 247 -168 771 -255 1304 -216 403 30 638 81 839 183 113 57 152 110
162 214 11 129 10 128 117 68 132 -74 173 -136 149 -225 -7 -24 -12 -65 -12
-90 0 -60 -23 -91 -108 -147 -181 -118 -509 -207 -907 -246 -110 -11 -252 -25
-315 -31 -63 -6 -124 -11 -135 -10 -11 0 -60 3 -110 5 -174 9 -355 26 -377 34
-24 9 -24 9 28 26 11 4 15 13 12 29 -7 36 21 46 134 47 l103 2 -165 13 c-531
43 -1002 209 -1076 380 -33 78 43 171 193 234 70 30 99 27 77 -7z m2227 -167
c-22 -23 -134 -83 -165 -88 -10 -2 -21 3 -23 10 -3 6 2 12 10 12 21 0 34 20
41 65 7 38 5 41 -21 51 -27 9 -25 11 54 43 45 18 90 42 100 53 18 20 18 19 21
-52 2 -62 0 -76 -17 -94z m-3683 117 c-3 -23 -17 -33 -118 -79 -63 -29 -169
-74 -235 -100 -66 -26 -143 -58 -172 -71 -29 -13 -88 -36 -133 -52 l-80 -28 0
32 c0 30 3 32 61 49 33 9 91 32 127 50 68 34 247 108 292 121 14 4 43 17 65
28 40 21 173 74 188 76 5 1 7 -11 5 -26z m6021 -48 l36 6 -27 -23 c-71 -60
-72 -61 -338 -147 -131 -42 -230 -61 -230 -44 0 11 190 100 349 163 58 23 116
47 130 55 22 11 27 11 35 -2 6 -11 17 -13 45 -8z m-419 -12 c17 -16 -148 -96
-187 -91 -24 3 -28 8 -31 40 -5 55 28 70 133 62 44 -3 82 -8 85 -11z m760 -43
c13 -9 13 -11 0 -20 -8 -6 -31 -14 -50 -20 -19 -5 -91 -34 -160 -63 -126 -54
-174 -72 -220 -81 -73 -15 -400 -140 -538 -206 -97 -47 -127 -51 -116 -17 11
37 31 71 50 88 11 9 78 31 149 48 72 18 147 39 169 47 21 8 41 13 43 10 3 -3
12 1 20 9 17 17 33 19 33 5 0 -5 13 -10 30 -10 32 0 182 47 190 60 10 16 157
84 260 121 120 42 120 42 140 29z m-1144 -54 c57 -57 42 -114 -37 -136 -28 -8
-42 -6 -79 13 -58 29 -78 63 -61 104 15 37 42 51 100 52 36 1 48 -4 77 -33z
m-5191 4 c0 -9 -30 -28 -75 -47 -41 -17 -97 -42 -125 -54 -27 -12 -66 -27 -85
-34 -20 -7 -69 -30 -110 -50 -77 -39 -237 -97 -300 -109 -36 -7 -34 -5 215
129 94 51 439 186 465 182 8 -1 15 -9 15 -17z m3455 -60 c0 -5 -5 -10 -11 -10
-5 0 -7 5 -4 10 3 6 8 10 11 10 2 0 4 -4 4 -10z m-2430 -66 c0 -35 6 -65 17
-82 64 -100 168 -188 285 -241 75 -34 278 -104 365 -126 73 -18 342 -59 528
-80 174 -20 554 -19 749 1 185 18 491 67 606 95 219 54 474 172 556 256 47 48
94 133 95 172 0 15 4 35 8 45 7 17 13 13 48 -35 67 -89 76 -113 70 -188 -4
-36 -8 -116 -10 -177 -2 -61 -7 -116 -11 -122 -14 -22 -131 -84 -226 -119
-200 -74 -228 -83 -345 -112 -200 -51 -695 -119 -695 -96 0 5 -4 5 -8 -2 -11
-18 -223 -23 -229 -5 -3 7 5 12 21 12 34 0 38 39 4 42 -13 0 -30 1 -38 2 -8 1
-16 9 -18 19 -2 9 -8 17 -13 17 -5 0 -9 8 -9 18 0 16 -17 17 -232 19 -493 2
-1074 111 -1373 258 -125 61 -235 146 -265 205 -29 57 -27 127 6 176 35 53 95
114 106 108 4 -3 8 -30 8 -60z m-984 19 c-6 -20 -66 -62 -167 -116 -84 -46
-356 -148 -596 -222 -7 -3 -13 0 -13 5 0 14 115 74 195 103 39 14 93 35 120
47 28 12 86 37 130 55 44 18 116 51 160 72 184 89 181 88 171 56z m-836 -193
c23 -44 -34 -88 -71 -54 -25 22 -24 39 3 58 30 22 55 20 68 -4z m7120 -5 c7
-8 10 -21 7 -30 -5 -12 -320 -175 -340 -175 -13 0 -7 69 8 83 8 9 38 26 67 39
29 12 87 40 128 60 83 40 111 45 130 23z m-655 -46 c49 -14 109 -74 141 -143
31 -65 30 -100 -2 -164 -48 -96 -143 -148 -226 -123 -59 18 -94 47 -139 116
-49 76 -52 127 -11 205 30 59 59 84 118 105 48 17 68 18 119 4z m-5735 -13 c0
-20 -53 -58 -120 -86 -30 -12 -77 -34 -104 -47 -57 -29 -314 -118 -367 -127
-70 -12 -75 4 -14 40 31 19 60 34 65 34 5 0 24 6 42 14 18 8 49 21 70 30 20 9
40 16 45 16 12 0 141 54 201 84 47 24 138 54 170 55 6 1 12 -6 12 -13z m-92
-208 c-3 -7 -36 -26 -74 -41 -123 -50 -466 -168 -471 -163 -14 13 10 36 44 42
21 3 70 21 108 40 59 28 209 80 345 121 48 15 52 15 48 1z m5372 -235 c29 -24
32 -31 27 -66 -11 -85 -90 -115 -148 -58 -37 37 -40 88 -6 118 44 41 84 43
127 6z m-3445 -795 c209 -43 411 -242 481 -474 25 -80 24 -253 -1 -349 -47
-183 -183 -343 -370 -436 -110 -54 -207 -72 -328 -59 -170 17 -301 78 -425
195 -125 118 -180 245 -189 435 -11 224 45 379 189 522 106 105 223 160 388
181 48 7 194 -2 255 -15z m3647 11 c29 -6 89 -28 134 -49 89 -43 227 -145 222
-164 -2 -7 -43 -50 -91 -96 l-88 -83 -46 33 c-77 55 -148 79 -234 80 -96 0
-161 -19 -232 -70 -111 -80 -174 -211 -164 -344 10 -151 82 -259 213 -322 125
-60 251 -56 391 12 64 31 66 31 75 2 3 -13 6 27 5 87 l-2 110 -167 3 -168 2 0
126 0 125 298 -7 c197 -5 300 -11 305 -18 7 -10 -1 -314 -9 -328 -2 -3 1 -50
6 -104 6 -54 8 -105 5 -115 -3 -9 -20 -20 -38 -23 -18 -3 -68 -27 -112 -52
-182 -104 -292 -144 -400 -144 -91 0 -227 35 -317 81 -118 62 -230 174 -286
289 -54 108 -65 173 -60 335 4 101 10 145 27 195 69 199 249 370 454 430 71
21 200 25 279 9z m-2863 -185 c38 -87 88 -199 111 -249 23 -49 66 -148 95
-220 29 -71 64 -154 78 -184 l25 -54 31 62 c18 34 52 114 77 179 46 120 158
372 242 542 l47 95 163 3 c89 1 162 -1 162 -5 0 -5 -72 -152 -159 -328 -88
-176 -168 -342 -179 -370 -11 -27 -74 -166 -140 -307 -66 -141 -123 -266 -127
-278 -6 -19 -13 -20 -111 -18 l-105 3 -75 160 c-42 88 -101 219 -131 290 -93
217 -176 399 -287 629 -58 120 -106 220 -106 222 0 10 296 8 308 -2 7 -5 43
-82 81 -170z m-2796 39 c38 -76 106 -208 152 -293 46 -85 110 -207 142 -270
32 -63 62 -115 68 -115 5 0 29 45 53 100 70 160 220 470 286 593 l60 112 112
0 c61 0 132 3 158 6 l46 7 0 -655 0 -655 -92 -7 c-50 -3 -111 -6 -136 -6 l-45
0 5 413 c5 362 4 409 -8 391 -8 -12 -59 -113 -113 -225 -53 -112 -136 -271
-183 -354 -47 -82 -95 -169 -107 -192 -11 -23 -25 -44 -30 -47 -24 -15 -318
506 -412 729 -23 55 -46 104 -50 109 -13 15 -14 -3 -14 -429 l0 -390 -136 -3
-136 -4 -1 661 -1 661 157 0 157 0 68 -137z m4832 -8 l0 -140 -357 0 -357 0
-3 -113 -3 -112 303 0 302 0 0 -74 c0 -40 -3 -100 -6 -134 -6 -51 -10 -61 -29
-66 -12 -3 -144 -6 -293 -6 l-272 -1 0 -120 0 -120 360 3 360 3 0 -142 0 -143
-499 0 -498 0 -5 503 c-5 385 -3 511 7 539 12 35 113 205 143 240 13 16 43 18
281 21 146 1 334 2 416 2 l150 0 0 -140z m-3246 -1471 l53 -27 -25 -25 c-24
-23 -26 -24 -48 -8 -42 29 -105 17 -141 -28 -22 -26 -23 -94 -2 -124 36 -52
113 -64 156 -25 17 15 19 15 38 -2 11 -10 20 -21 20 -24 -1 -11 -74 -58 -101
-64 -42 -11 -101 12 -146 57 -70 71 -71 156 -1 232 63 68 116 78 197 38z m665
4 c3 -13 6 -49 6 -82 0 -45 3 -57 14 -53 7 3 34 9 60 12 l46 7 0 -40 0 -41
-57 -3 -58 -3 -3 -45 c-4 -73 -10 -90 -34 -90 -19 0 -20 4 -16 73 l5 72 -61 0
c-57 0 -61 1 -70 28 -14 38 5 49 73 43 l53 -5 -7 75 c-7 74 -7 74 18 74 17 0
27 -7 31 -22z m908 1 c37 -9 88 -58 88 -84 0 -7 -12 -28 -27 -45 l-26 -32 31
-25 c41 -31 41 -61 1 -99 -28 -27 -36 -29 -125 -32 l-94 -4 0 170 0 171 58 -6
c31 -3 74 -9 94 -14z m632 -35 c48 -82 128 -264 122 -279 -11 -29 -50 -17 -71
23 -19 36 -22 37 -83 40 -66 3 -64 4 -76 -50 -7 -29 -28 -36 -55 -19 -17 11
-10 40 44 181 51 136 64 162 77 158 7 -3 26 -27 42 -54z m-1930 30 c3 -9 6
-40 6 -70 l0 -55 35 7 c19 3 51 3 70 0 32 -6 35 -10 35 -42 l0 -34 -72 7 -71
6 6 -40 c4 -23 4 -54 1 -71 -5 -27 -9 -29 -33 -23 -24 7 -26 11 -26 66 l0 59
-56 -3 c-51 -2 -57 0 -63 21 -15 58 -12 61 59 53 l65 -7 0 71 c0 63 2 71 19
71 10 0 22 -7 25 -16z m766 -53 c0 -37 3 -96 6 -130 l7 -61 73 0 74 0 0 -35 0
-35 -110 0 -110 0 0 165 0 165 30 0 30 0 0 -69z m268 56 c6 -7 14 -84 18 -170
l7 -157 -30 0 c-40 0 -43 11 -43 193 0 137 1 147 19 147 10 0 23 -6 29 -13z
m599 -4 c73 -34 94 -115 43 -163 l-30 -28 30 -53 c36 -66 37 -79 6 -79 -18 0
-31 11 -49 43 -30 51 -54 73 -88 82 l-25 6 4 -65 4 -66 -29 0 -30 0 -5 94 c-3
52 -3 128 0 170 l5 76 64 0 c40 0 79 -6 100 -17z m674 -9 c56 -51 62 -126 12
-162 l-27 -20 36 -58 c39 -63 39 -74 5 -74 -16 1 -32 18 -58 59 -29 47 -43 59
-67 63 l-31 4 -3 -60 c-3 -58 -4 -61 -27 -58 -14 1 -26 3 -27 5 -1 1 -4 76 -6
166 l-3 163 87 -4 c68 -3 92 -8 109 -24z m169 -21 c16 -27 37 -59 46 -72 l17
-24 45 72 c38 61 48 71 73 71 16 0 29 -2 29 -5 0 -3 -28 -52 -62 -108 -58 -96
-62 -105 -60 -159 l3 -58 -31 0 -30 0 0 61 c0 52 -5 70 -34 118 -36 59 -76
137 -76 146 0 3 11 5 25 5 20 0 32 -11 55 -47z"/>
<path d="M3595 8431 c-88 -40 -135 -102 -135 -177 0 -101 113 -204 225 -204
50 0 131 44 164 90 53 74 52 150 -3 223 -60 80 -164 108 -251 68z m153 -86
c30 -36 31 -106 0 -134 -22 -22 -73 -35 -104 -29 -26 5 -64 66 -64 102 1 85
112 125 168 61z"/>
<path d="M3638 8263 c-34 -5 -37 -29 -5 -39 57 -18 117 -9 117 19 0 6 -3 8 -6
4 -4 -3 -13 0 -21 8 -14 15 -31 16 -85 8z"/>
<path d="M3380 8200 c0 -6 13 -37 29 -69 34 -66 79 -110 153 -147 44 -22 60
-25 105 -20 82 10 160 43 209 90 24 24 44 51 44 61 0 15 -3 13 -20 -7 -30 -38
-109 -84 -168 -98 -108 -25 -199 14 -267 116 -40 60 -62 84 -77 84 -4 0 -8 -5
-8 -10z"/>
<path d="M4197 8185 c-50 -35 -56 -65 -23 -116 45 -68 94 -75 155 -23 48 40
38 108 -21 144 -43 26 -66 25 -111 -5z"/>
<path d="M5000 7968 c-57 -29 -71 -63 -47 -112 33 -71 94 -82 157 -29 43 36
42 83 -4 129 -40 40 -48 41 -106 12z"/>
<path d="M3067 8041 c-13 -16 -43 -39 -66 -51 -75 -38 -300 -169 -372 -216
-77 -51 -89 -75 -65 -123 26 -49 54 -49 132 0 38 23 134 79 214 124 190 106
278 163 290 185 16 30 12 55 -15 84 -34 37 -85 36 -118 -3z"/>
<path d="M5850 8121 c-92 -19 -202 -108 -246 -198 -39 -78 -39 -194 -2 -275
35 -76 104 -148 175 -183 80 -40 192 -46 276 -15 80 30 170 114 195 183 45
120 34 244 -31 339 -37 55 -108 112 -163 132 -50 17 -159 26 -204 17z m186
-167 c58 -46 76 -88 71 -160 -6 -82 -30 -129 -82 -159 -63 -38 -131 -35 -186
8 -23 17 -52 50 -63 72 -28 54 -28 147 -1 194 49 83 185 107 261 45z"/>
<path d="M5818 7822 c-51 -17 -58 -26 -48 -62 21 -73 85 -120 162 -120 44 0
108 30 108 50 0 6 5 8 11 4 7 -4 10 -1 7 7 -3 9 -17 13 -41 11 -34 -3 -37 -1
-37 22 0 14 -5 26 -10 26 -6 0 -5 8 2 20 7 11 19 20 27 20 8 0 11 3 8 6 -6 7
-28 10 -75 13 -13 0 -21 5 -18 9 8 14 -49 10 -96 -6z"/>
<path d="M5390 7759 c0 -49 33 -176 57 -222 15 -29 59 -84 98 -123 120 -122
286 -186 426 -163 64 10 163 41 213 66 70 36 185 172 218 258 9 22 19 65 23
95 l7 55 -28 -25 c-16 -14 -32 -29 -35 -34 -4 -5 -12 -6 -18 -2 -6 4 -25 -22
-47 -65 -45 -89 -113 -157 -201 -201 -63 -31 -75 -33 -168 -33 -92 0 -106 3
-167 32 -81 38 -161 111 -194 174 -13 26 -31 78 -40 115 -9 38 -18 71 -20 73
-1 1 -30 6 -63 10 -54 6 -61 5 -61 -10z"/>
<path d="M2060 7553 c-66 -67 -64 -176 6 -246 42 -42 81 -53 157 -43 29 4 60
8 69 9 9 1 15 3 13 6 -3 2 9 19 26 39 40 46 50 75 46 134 -3 34 -11 56 -28 74
-52 55 -148 70 -226 34 -46 -20 -58 -12 -21 14 13 9 16 16 9 16 -7 0 -30 -17
-51 -37z m184 -54 c43 -50 29 -103 -34 -129 -29 -12 -34 -11 -56 11 -38 38
-41 79 -9 117 34 41 65 41 99 1z"/>
<path d="M2339 7303 c-13 -16 -12 -17 4 -4 9 7 17 15 17 17 0 8 -8 3 -21 -13z"/>
<path d="M3943 7145 c-90 -46 -124 -113 -99 -197 21 -73 105 -148 166 -148 40
0 122 44 157 83 66 75 47 186 -42 249 -60 42 -117 46 -182 13z m123 -63 c48
-38 58 -102 23 -146 -30 -38 -68 -35 -113 11 -27 28 -36 46 -36 71 0 66 76
105 126 64z"/>
<path d="M3972 6994 c4 -25 55 -38 92 -24 40 15 23 29 -43 37 -48 5 -53 4 -49
-13z"/>
<path d="M3757 6984 c-10 -10 4 -65 29 -115 61 -122 202 -166 319 -99 52 30
115 91 115 111 0 5 -14 -6 -31 -25 -17 -19 -56 -47 -86 -62 -46 -21 -67 -25
-114 -22 -76 6 -114 36 -174 138 -27 44 -49 80 -50 80 -1 0 -4 -3 -8 -6z"/>
<path d="M2165 6690 c3 -5 8 -10 11 -10 2 0 4 5 4 10 0 6 -5 10 -11 10 -5 0
-7 -4 -4 -10z"/>
<path d="M2018 6663 c7 -3 16 -2 19 1 4 3 -2 6 -13 5 -11 0 -14 -3 -6 -6z"/>
<path d="M1646 6995 c-8 -21 29 -38 67 -29 l31 6 -35 19 c-42 22 -55 23 -63 4z"/>
<path d="M4422 6814 c-31 -22 -30 -74 5 -114 37 -45 67 -54 110 -33 48 22 60
51 39 95 -29 60 -105 87 -154 52z"/>
<path d="M5025 6456 c-47 -20 -58 -40 -52 -89 7 -53 56 -102 90 -91 46 14 77
44 77 75 0 37 -23 83 -52 103 -26 19 -25 19 -63 2z"/>
<path d="M3481 6762 c-37 -39 -187 -141 -296 -201 -80 -44 -95 -59 -95 -91 0
-31 34 -80 56 -80 15 0 214 126 315 199 32 23 63 41 71 41 22 0 57 29 73 60
19 37 6 74 -34 95 -42 21 -50 20 -90 -23z"/>
<path d="M5597 6176 c-86 -36 -133 -72 -171 -133 -113 -181 -49 -406 142 -500
151 -74 350 3 429 165 24 49 28 69 28 147 0 78 -4 98 -28 146 -42 87 -116 155
-195 179 -84 26 -134 25 -205 -4z m214 -161 c67 -63 86 -154 48 -232 -52 -107
-165 -130 -254 -51 -81 71 -83 212 -3 284 33 31 45 34 115 31 54 -3 67 -7 94
-32z"/>
<path d="M5660 5907 c3 -3 26 -8 52 -11 26 -4 56 -9 65 -13 14 -4 15 -3 7 6
-6 7 -38 15 -70 18 -32 3 -57 3 -54 0z"/>
<path d="M5560 5828 c0 -14 50 -68 63 -68 5 0 -3 14 -17 31 -14 17 -26 35 -26
40 0 5 -4 9 -10 9 -5 0 -10 -5 -10 -12z"/>
<path d="M5296 5813 c-3 -3 -26 -5 -50 -5 -25 1 -47 -2 -50 -7 -10 -15 24
-122 60 -191 48 -93 121 -163 219 -211 143 -70 253 -75 390 -18 126 51 221
157 269 297 18 49 13 55 -9 12 -9 -17 -20 -28 -26 -24 -6 4 -6 11 2 20 6 8 10
16 8 19 -2 2 -36 -32 -74 -76 -80 -91 -166 -153 -244 -175 -113 -34 -264 9
-354 98 -50 51 -106 156 -114 217 -6 41 -15 56 -27 44z"/>
<path d="M2634 6275 c-30 -29 -32 -35 -29 -93 1 -34 10 -77 19 -96 55 -116
248 -99 307 25 22 47 22 53 8 91 -13 40 -23 48 -101 93 -20 11 -49 15 -100 13
-66 -3 -76 -6 -104 -33z m36 4 c-14 -11 -33 -30 -43 -42 l-18 -22 10 22 c11
21 58 63 70 63 3 -1 -5 -10 -19 -21z m129 -50 c37 -36 38 -48 10 -83 -26 -33
-49 -33 -88 0 -36 30 -39 51 -10 88 27 34 51 33 88 -5z"/>
<path d="M2095 6100 c-3 -5 -1 -10 4 -10 6 0 11 5 11 10 0 6 -2 10 -4 10 -3 0
-8 -4 -11 -10z"/>
<path d="M4750 5493 c0 -5 7 -18 15 -29 13 -18 14 -18 8 4 -5 22 -23 41 -23
25z"/>
<path d="M2267 5713 c-11 -11 -8 -30 6 -30 6 0 20 -4 30 -8 15 -6 19 -2 16 21
0 4 5 11 13 15 8 6 1 9 -23 9 -20 0 -39 -3 -42 -7z"/>
<path d="M2315 5650 c4 -6 11 -8 16 -5 14 9 11 15 -7 15 -8 0 -12 -5 -9 -10z"/>
<path d="M4060 5165 c0 -8 16 -32 36 -53 33 -34 34 -34 10 -4 -14 19 -26 40
-26 47 0 8 -4 17 -10 20 -5 3 -10 -1 -10 -10z"/>
<path d="M4498 5013 c7 -3 16 -2 19 1 4 3 -2 6 -13 5 -11 0 -14 -3 -6 -6z"/>
<path d="M6998 3904 c-38 -20 -36 -28 2 -9 17 9 30 18 30 20 0 7 -1 6 -32 -11z"/>
<path d="M6570 3730 c-8 -5 -10 -10 -5 -10 6 0 17 5 25 10 8 5 11 10 5 10 -5
0 -17 -5 -25 -10z"/>
<path d="M6340 3665 c-52 -13 -87 -24 -76 -24 22 -1 196 39 196 45 0 6 -19 3
-120 -21z"/>
<path d="M2638 4913 c7 -3 16 -2 19 1 4 3 -2 6 -13 5 -11 0 -14 -3 -6 -6z"/>
<path d="M5057 4352 c-8 -9 -20 -29 -26 -44 -9 -24 -7 -30 21 -53 36 -31 69
-28 107 9 20 21 21 26 11 47 -31 60 -80 78 -113 41z"/>
<path d="M3452 4572 c-11 -15 -22 -36 -26 -47 -9 -30 32 -103 76 -139 36 -28
40 -29 78 -17 23 7 44 19 47 27 8 21 -24 52 -68 65 -32 10 -37 15 -35 38 4 36
-12 79 -34 91 -15 8 -23 4 -38 -18z"/>
<path d="M6614 4405 c-36 -55 41 -77 97 -27 41 37 31 52 -31 52 -42 0 -52 -4
-66 -25z"/>
<path d="M6360 4249 c-45 -18 -48 -52 -5 -63 53 -13 96 29 63 62 -14 14 -24
14 -58 1z"/>
<path d="M5328 3963 c12 -2 30 -2 40 0 9 3 -1 5 -23 4 -22 0 -30 -2 -17 -4z"/>
<path d="M8202 4217 c-10 -18 -35 -41 -55 -50 -39 -19 -138 -23 -168 -7 -15 9
-19 7 -19 -6 0 -47 97 -123 158 -124 60 0 162 91 162 145 0 23 -35 75 -50 75
-4 0 -17 -15 -28 -33z"/>
<path d="M4026 2890 c-77 -14 -189 -74 -235 -126 -62 -70 -85 -140 -86 -254 0
-84 3 -102 27 -151 34 -67 123 -156 199 -195 48 -26 64 -29 149 -29 81 0 103
4 150 26 127 60 238 209 248 335 10 117 -61 266 -156 329 -86 57 -200 82 -296
65z"/>
<path d="M8143 2453 c37 -2 96 -2 130 0 34 2 4 3 -68 3 -71 0 -99 -1 -62 -3z"/>
<path d="M5304 1496 c-12 -32 1 -51 43 -60 31 -6 47 -5 58 4 18 15 19 42 3 58
-17 17 -97 16 -104 -2z"/>
<path d="M5312 1338 c3 -32 4 -33 52 -33 52 0 75 18 63 49 -5 12 -20 16 -62
16 l-56 0 3 -32z"/>
<path d="M5982 1421 c-16 -51 -17 -48 28 -53 22 -2 40 -2 40 -1 0 9 -45 93
-50 93 -4 0 -12 -17 -18 -39z"/>
<path d="M5624 1474 c-9 -46 3 -56 62 -52 45 3 49 5 52 30 4 33 -29 58 -75 58
-29 0 -33 -4 -39 -36z"/>
<path d="M6270 1465 c0 -29 5 -37 26 -45 68 -26 119 4 95 56 -9 21 -17 24 -66
24 l-55 0 0 -35z"/>
</g>
</svg>
